# This file uses centimeters as units for non-parametric coordinates.

mtllib LaptopObj.mtl
g default
v -2.228862 -0.082416 1.337174
v 2.228862 -0.082416 1.337174
v -2.228862 0.033116 1.337174
v 2.228862 0.033116 1.337174
v -2.257318 0.033116 -1.738182
v 2.257318 0.033116 -1.738182
v -2.257318 -0.033835 -1.706437
v 2.257318 -0.033835 -1.706437
v 2.257318 0.021795 -1.650864
v -2.257318 0.021795 -1.650864
v -2.257318 -0.071095 -1.610760
v 2.257318 -0.071095 -1.610760
v 2.218036 2.440422 -2.693844
v -2.218036 2.440422 -2.693844
v 2.218036 2.418719 -2.781162
v -2.218036 2.418719 -2.781162
v -2.148066 0.022979 1.380968
v -2.148066 0.033116 -1.650864
v -2.148066 2.482960 -2.709946
v -2.148066 2.457492 -2.797264
v -2.148066 0.033116 -1.738182
v -2.148066 -0.033835 -1.706437
v -2.148066 -0.082416 -1.610760
v -2.148066 -0.072279 1.380968
v 2.149409 0.022979 1.380968
v 2.149409 0.033116 -1.650864
v 2.149409 2.482960 -2.709946
v 2.149409 2.457492 -2.797264
v 2.149409 0.033116 -1.738182
v 2.149409 -0.033835 -1.706437
v 2.149409 -0.082416 -1.610760
v 2.149409 -0.072279 1.380968
v 2.149409 0.033116 1.244288
v -2.148066 0.033116 1.244288
v -2.257317 0.021795 1.244288
v -2.257318 -0.071095 1.245918
v -2.148066 -0.082416 1.245918
v 2.149409 -0.082416 1.245918
v 2.257318 -0.071095 1.245918
v 2.257317 0.021795 1.244288
v 2.149409 2.348286 -2.651725
v -2.148066 2.348286 -2.651725
v -2.257318 2.348286 -2.651725
v -2.257318 2.324218 -2.739043
v -2.148066 2.324218 -2.739043
v 2.149409 2.324218 -2.739043
v 2.257318 2.324218 -2.739043
v 2.257318 2.348286 -2.651725
v -2.079962 0.069805 -1.666725
v -2.079962 2.311597 -2.635864
v 2.081305 0.069805 -1.666725
v 2.081305 2.311597 -2.635864
v -2.079962 0.064732 -1.678462
v -2.079962 2.306523 -2.647600
v 2.081305 0.064732 -1.678462
v 2.081305 2.306523 -2.647600
vt 0.375000 0.000000
vt 0.625000 0.000000
vt 0.375000 0.250000
vt 0.625000 0.250000
vt 0.375000 0.500000
vt 0.625000 0.500000
vt 0.375000 0.750000
vt 0.625000 0.750000
vt 0.375000 1.000000
vt 0.625000 1.000000
vt 0.875000 0.000000
vt 0.875000 0.250000
vt 0.125000 0.000000
vt 0.125000 0.250000
vt 0.625000 0.481321
vt 0.856321 0.250000
vt 0.143679 0.250000
vt 0.375000 0.481321
vt 0.143679 0.000000
vt 0.375000 0.768679
vt 0.625000 0.768679
vt 0.856321 0.000000
vt 0.375000 0.481321
vt 0.625000 0.481321
vt 0.625000 0.500000
vt 0.375000 0.500000
vt 0.378799 0.250000
vt 0.378799 0.481321
vt 0.378799 0.481321
vt 0.378799 0.500000
vt 0.378799 0.500000
vt 0.378799 0.750000
vt 0.378799 0.768679
vt 0.378799 0.000000
vt 0.378799 1.000000
vt 0.619024 0.250000
vt 0.619024 0.481321
vt 0.619024 0.481321
vt 0.619024 0.500000
vt 0.619024 0.500000
vt 0.619024 0.750000
vt 0.619024 0.768679
vt 0.619024 0.000000
vt 0.619024 1.000000
vt 0.619024 0.259403
vt 0.378799 0.259403
vt 0.365597 0.250000
vt 0.375000 0.259403
vt 0.365597 0.000000
vt 0.375000 0.990597
vt 0.378799 0.990597
vt 0.619024 0.990597
vt 0.625000 0.990597
vt 0.634403 0.000000
vt 0.625000 0.259403
vt 0.634403 0.250000
vt 0.619024 0.481321
vt 0.378799 0.481321
vt 0.375000 0.481321
vt 0.375000 0.500000
vt 0.378799 0.500000
vt 0.619024 0.500000
vt 0.625000 0.500000
vt 0.625000 0.481321
vt 0.378799 0.481321
vt 0.378799 0.481321
vt 0.619024 0.481321
vt 0.619024 0.481321
vt 0.378799 0.481321
vt 0.378799 0.481321
vt 0.619024 0.481321
vt 0.619024 0.481321
vn -0.476528 0.000000 0.879160
vn -0.476528 0.000000 0.879160
vn -0.476528 0.000000 0.879160
vn -0.476528 0.000000 0.879159
vn -0.005187 0.999976 -0.004512
vn -0.005187 0.999976 -0.004512
vn -0.005187 0.999976 -0.004512
vn -0.005187 0.999976 -0.004512
vn 0.000000 -0.428437 -0.903571
vn 0.000000 -0.428437 -0.903571
vn 0.000000 -0.428437 -0.903571
vn 0.000000 -0.428437 -0.903571
vn -0.005172 -0.999976 -0.004579
vn -0.005172 -0.999976 -0.004579
vn -0.005172 -0.999976 -0.004579
vn -0.005172 -0.999976 -0.004579
vn 0.955408 0.002311 0.295281
vn 0.955408 0.002311 0.295281
vn 0.955408 0.002311 0.295281
vn 0.955408 0.002311 0.295281
vn -0.955408 0.002312 0.295281
vn -0.955408 0.002312 0.295281
vn -0.955408 0.002312 0.295281
vn -0.955408 0.002312 0.295281
vn -0.527521 0.820150 -0.221528
vn -0.527521 0.820150 -0.221528
vn -0.527521 0.820150 -0.221528
vn -0.527521 0.820150 -0.221528
vn -1.000000 0.000001 0.000000
vn -1.000000 0.000001 0.000000
vn -1.000000 0.000001 0.000000
vn -1.000000 0.000001 0.000000
vn -0.047218 -0.911381 -0.408846
vn -0.047218 -0.911381 -0.408846
vn -0.047218 -0.911381 -0.408846
vn -0.047218 -0.911381 -0.408846
vn 1.000000 0.000000 0.000000
vn 1.000000 0.000000 0.000000
vn 1.000000 0.000000 0.000000
vn 1.000000 0.000000 0.000000
vn -0.020511 0.395914 0.918058
vn -0.020511 0.395914 0.918058
vn -0.020511 0.395914 0.918059
vn -0.020511 0.395914 0.918059
vn 1.000000 0.000000 0.000000
vn 1.000000 0.000000 0.000000
vn 0.000000 -0.400317 -0.916377
vn 0.000000 -0.400317 -0.916377
vn 0.000000 -0.400317 -0.916377
vn 0.000000 -0.400317 -0.916377
vn -1.000000 0.000000 0.000000
vn -1.000000 0.000000 0.000000
vn -1.000000 0.000000 0.000000
vn -1.000000 0.000000 0.000000
vn 0.000000 0.997261 0.073965
vn 0.000000 0.997261 0.073965
vn 0.000000 0.997261 0.073965
vn 0.000000 0.997261 0.073965
vn 0.000000 0.396813 0.917899
vn 0.000000 0.396813 0.917899
vn 0.000000 0.396813 0.917899
vn 0.000000 0.396813 0.917899
vn 0.000000 0.960000 -0.279999
vn 0.000000 0.960000 -0.279999
vn 0.000000 0.960000 -0.279999
vn 0.000000 0.960000 -0.279999
vn 0.000000 -0.400317 -0.916377
vn 0.000000 -0.400317 -0.916377
vn 0.000000 -0.400317 -0.916377
vn 0.000000 -0.400317 -0.916377
vn 0.000000 -0.428437 -0.903572
vn 0.000000 -0.428437 -0.903572
vn 0.000000 -0.428437 -0.903572
vn 0.000000 -0.428437 -0.903572
vn 0.000000 -0.891642 -0.452742
vn 0.000000 -0.891642 -0.452742
vn 0.000000 -0.891642 -0.452742
vn 0.000000 -0.891642 -0.452742
vn 0.000000 -0.997195 0.074852
vn 0.000000 -0.997195 0.074852
vn 0.000000 -0.997195 0.074852
vn 0.000000 -0.997195 0.074852
vn 0.000000 0.000000 1.000000
vn 0.000000 0.000000 1.000000
vn 0.000000 0.000000 1.000000
vn 0.000000 0.000000 1.000000
vn 0.005264 0.999976 -0.004502
vn 0.005264 0.999976 -0.004502
vn 0.005264 0.999976 -0.004502
vn 0.005264 0.999976 -0.004502
vn 0.020766 0.395912 0.918054
vn 0.020766 0.395912 0.918054
vn 0.020766 0.395912 0.918054
vn 0.020766 0.395912 0.918054
vn 0.534912 0.815677 -0.220319
vn 0.534912 0.815677 -0.220319
vn 0.534912 0.815677 -0.220319
vn 0.534912 0.815677 -0.220319
vn 0.000000 -0.400317 -0.916377
vn 0.000000 -0.400317 -0.916377
vn 0.000000 -0.400317 -0.916377
vn 0.000000 -0.400317 -0.916377
vn -0.000000 -0.428437 -0.903572
vn -0.000000 -0.428437 -0.903572
vn -0.000000 -0.428437 -0.903572
vn -0.000000 -0.428437 -0.903572
vn 0.047805 -0.911355 -0.408835
vn 0.047805 -0.911355 -0.408835
vn 0.047805 -0.911355 -0.408835
vn 0.047805 -0.911355 -0.408836
vn 0.005248 -0.999976 -0.004569
vn 0.005248 -0.999976 -0.004569
vn 0.005248 -0.999976 -0.004569
vn 0.005248 -0.999976 -0.004569
vn 0.482718 0.000000 0.875776
vn 0.482718 0.000000 0.875776
vn 0.482718 0.000000 0.875776
vn 0.482718 0.000000 0.875776
vn 0.000000 1.000000 0.000000
vn 0.000000 1.000000 0.000000
vn 0.000000 1.000000 0.000000
vn 0.000000 1.000000 0.000000
vn -0.103068 0.994674 0.000000
vn -0.103068 0.994674 0.000000
vn -0.103068 0.994674 0.000000
vn -0.103068 0.994674 0.000000
vn -1.000000 0.000005 0.000000
vn -1.000000 0.000005 0.000000
vn -1.000000 0.000005 0.000000
vn -1.000000 0.000005 0.000000
vn -0.103067 -0.994674 0.000000
vn -0.103067 -0.994674 0.000000
vn -0.103067 -0.994674 0.000000
vn -0.103067 -0.994674 0.000000
vn 0.000000 -1.000000 0.000000
vn 0.000000 -1.000000 0.000000
vn 0.000000 -1.000000 0.000000
vn 0.000000 -1.000000 0.000000
vn 0.104336 -0.994542 0.000000
vn 0.104336 -0.994542 0.000000
vn 0.104336 -0.994542 0.000000
vn 0.104336 -0.994542 0.000000
vn 1.000000 0.000005 0.000000
vn 1.000000 0.000005 0.000000
vn 1.000000 0.000005 0.000000
vn 1.000000 0.000005 0.000000
vn 0.104337 0.994542 0.000000
vn 0.104337 0.994542 0.000000
vn 0.104337 0.994542 0.000000
vn 0.104337 0.994542 0.000000
vn 0.000000 0.396815 0.917899
vn 0.000000 0.396815 0.917899
vn 0.000000 0.396815 0.917899
vn 0.000000 0.396815 0.917899
vn -0.014439 0.406620 0.913483
vn -0.014439 0.406620 0.913483
vn -0.014439 0.406620 0.913483
vn -0.014439 0.406620 0.913483
vn -0.931928 0.350796 -0.091939
vn -0.931928 0.350796 -0.091939
vn -0.931928 0.350796 -0.091939
vn -0.931928 0.350796 -0.091939
vn 0.005183 -0.403876 -0.914799
vn 0.005183 -0.403876 -0.914799
vn 0.005183 -0.403876 -0.914799
vn 0.005183 -0.403876 -0.914799
vn 0.000000 -0.400315 -0.916378
vn 0.000000 -0.400315 -0.916378
vn 0.000000 -0.400315 -0.916378
vn 0.000000 -0.400315 -0.916378
vn -0.005267 -0.403888 -0.914793
vn -0.005267 -0.403888 -0.914793
vn -0.005267 -0.403888 -0.914793
vn -0.005267 -0.403888 -0.914793
vn 0.931927 0.350797 -0.091939
vn 0.931927 0.350797 -0.091939
vn 0.931927 0.350797 -0.091939
vn 0.931927 0.350797 -0.091939
vn 0.014668 0.406651 0.913466
vn 0.014668 0.406651 0.913466
vn 0.014668 0.406651 0.913466
vn 0.014668 0.406651 0.913466
vn 0.000001 0.396813 0.917899
vn 0.000001 0.396813 0.917899
vn 0.000001 0.396813 0.917899
vn 0.000001 0.396813 0.917899
vn 0.000000 0.396815 0.917899
vn 0.000000 0.396815 0.917899
vn 0.000000 0.396815 0.917899
vn 0.000000 0.396815 0.917899
vn -0.000001 0.396812 0.917900
vn -0.000001 0.396812 0.917900
vn -0.000001 0.396812 0.917900
vn -0.000001 0.396812 0.917900
vn 0.000000 0.396813 0.917899
vn 0.000000 0.396813 0.917900
vn 0.000000 0.396813 0.917900
vn 0.000000 0.396813 0.917899
vn 1.000000 -0.000000 0.000000
vn 1.000000 -0.000000 0.000000
vn 1.000000 -0.000000 0.000000
vn 1.000000 -0.000000 0.000000
vn 0.000000 0.917898 -0.396817
vn 0.000000 0.917898 -0.396817
vn 0.000000 0.917898 -0.396817
vn 0.000000 0.917898 -0.396817
vn -1.000000 -0.000001 0.000000
vn -1.000000 -0.000001 0.000000
vn -1.000000 -0.000001 0.000000
vn -1.000000 -0.000001 0.000000
vn 0.000000 -0.917905 0.396799
vn 0.000000 -0.917905 0.396799
vn 0.000000 -0.917905 0.396799
vn 0.000000 -0.917905 0.396799
s off
g pCube1
usemtl initialShadingGroup
f 1/1/1 24/34/2 17/27/3 3/3/4
f 3/3/5 17/27/6 34/46/7 35/48/8
f 5/5/9 21/31/10 22/32/11 7/7/12
f 36/50/13 37/51/14 24/35/15 1/9/16
f 2/2/17 39/54/18 40/56/19 4/4/20
f 36/49/21 1/1/22 3/3/23 35/47/24
f 14/23/25 19/29/26 20/30/27 16/26/28
f 7/13/29 11/19/30 10/17/31 5/14/32
f 7/7/33 22/32/34 23/33/35 11/20/36
s 1
f 9/16/37 12/22/38 8/11/39 6/12/40
s off
f 10/18/41 18/28/42 42/58/43 43/59/44
s 1
f 9/15/37 6/6/40 47/63/45 48/64/46
s off
f 21/31/47 5/5/48 44/60/49 45/61/50
f 5/5/51 10/18/52 43/59/53 44/60/54
f 17/27/55 25/36/56 33/45/57 34/46/58
f 54/69/59 53/70/60 55/71/61 56/72/62
f 20/30/63 19/29/64 27/38/65 28/39/66
f 29/40/67 21/31/68 45/61/69 46/62/70
f 22/32/71 21/31/72 29/40/73 30/41/74
f 23/33/75 22/32/76 30/41/77 31/42/78
f 24/35/79 37/51/80 38/52/81 32/44/82
f 17/27/83 24/34/84 32/43/85 25/36/86
f 25/36/87 4/4/88 40/55/89 33/45/90
f 48/64/91 41/57/92 26/37/93 9/15/94
f 28/39/95 27/38/96 13/24/97 15/25/98
f 6/6/99 29/40/100 46/62/101 47/63/102
f 30/41/103 29/40/104 6/6/105 8/8/106
f 31/42/107 30/41/108 8/8/109 12/21/110
f 32/44/111 38/52/112 39/53/113 2/10/114
f 25/36/115 32/43/116 2/2/117 4/4/118
f 34/46/119 33/45/120 26/37/121 18/28/122
f 35/48/123 34/46/124 18/28/125 10/18/126
f 11/19/127 36/49/128 35/47/129 10/17/130
f 11/20/131 23/33/132 37/51/133 36/50/134
f 38/52/135 37/51/136 23/33/137 31/42/138
f 39/53/139 38/52/140 31/42/141 12/21/142
f 40/56/143 39/54/144 12/22/145 9/16/146
f 33/45/147 40/55/148 9/15/149 26/37/150
f 19/29/151 42/58/152 41/57/153 27/38/154
f 43/59/155 42/58/156 19/29/157 14/23/158
f 44/60/159 43/59/160 14/23/161 16/26/162
f 45/61/163 44/60/164 16/26/165 20/30/166
f 46/62/167 45/61/168 20/30/169 28/39/170
f 47/63/171 46/62/172 28/39/173 15/25/174
f 48/64/175 47/63/176 15/25/177 13/24/178
f 27/38/179 41/57/180 48/64/181 13/24/182
f 42/58/183 18/28/184 49/66/185 50/65/186
f 18/28/187 26/37/188 51/67/189 49/66/190
f 26/37/191 41/57/192 52/68/193 51/67/194
f 41/57/195 42/58/196 50/65/197 52/68/198
f 50/65/199 49/66/200 53/70/201 54/69/202
f 49/66/203 51/67/204 55/71/205 53/70/206
f 51/67/207 52/68/208 56/72/209 55/71/210
f 52/68/211 50/65/212 54/69/213 56/72/214
