# This file uses centimeters as units for non-parametric coordinates.

mtllib PhoneObj.mtl
g default
v -0.079612 0.108537 0.886579
v 0.079612 0.107318 0.887192
v -0.079307 3.512458 0.885204
v 0.079307 3.512458 0.885714
v -0.079307 3.512458 -0.885204
v 0.079307 3.512458 -0.885714
v -0.079612 0.108537 -0.886579
v 0.079612 0.107318 -0.887192
v 0.079307 3.512458 0.805960
v -0.079307 3.512458 0.805960
v -0.079612 0.108537 0.806195
v 0.079612 0.107318 0.806195
v 0.079307 3.512458 -0.819127
v -0.079307 3.512458 -0.819127
v -0.079612 0.108537 -0.819130
v 0.079612 0.107318 -0.819130
v 0.092554 3.486820 -0.819245
v 0.092554 3.486820 0.805974
v 0.095077 3.487034 0.894820
v -0.095077 3.487034 0.893102
v -0.092554 3.486820 0.805974
v -0.092554 3.486820 -0.819245
v -0.095077 3.487034 -0.893102
v 0.095077 3.487034 -0.894820
v 0.092554 0.135443 -0.819242
v 0.092554 0.135443 0.805739
v 0.095077 0.135381 0.894820
v -0.095077 0.135381 0.893102
v -0.092554 0.135443 0.805739
v -0.092554 0.135443 -0.819242
v -0.095077 0.135381 -0.893102
v 0.095077 0.135381 -0.894820
v -0.045886 3.550359 0.870378
v -0.045886 3.550359 0.805960
v -0.045886 3.550359 -0.819183
v -0.045886 3.550359 -0.870378
v -0.066903 3.487346 -0.920753
v -0.066903 0.135289 -0.920753
v -0.045886 0.068682 -0.868556
v -0.045886 0.068682 -0.819183
v -0.045886 0.068682 0.805975
v -0.045886 0.068682 0.868556
v -0.066903 0.135289 0.920753
v -0.066903 3.487346 0.920753
v 0.044343 3.550359 0.870165
v 0.044343 3.550359 0.805960
v 0.044343 3.550359 -0.819183
v 0.044343 3.550359 -0.870165
v 0.061645 3.487346 -0.920753
v 0.061645 0.135289 -0.920753
v 0.044343 0.068682 -0.868354
v 0.044343 0.068682 -0.819183
v 0.044343 0.068682 0.805975
v 0.044343 0.068682 0.868354
v 0.061645 0.135289 0.920753
v 0.061645 3.487346 0.920753
vt 0.375000 0.000000
vt 0.625000 0.000000
vt 0.375000 0.250000
vt 0.625000 0.250000
vt 0.375000 0.500000
vt 0.625000 0.500000
vt 0.375000 0.750000
vt 0.625000 0.750000
vt 0.375000 1.000000
vt 0.625000 1.000000
vt 0.875000 0.000000
vt 0.875000 0.250000
vt 0.125000 0.000000
vt 0.125000 0.250000
vt 0.625000 0.261576
vt 0.636576 0.250000
vt 0.363424 0.250000
vt 0.375000 0.261576
vt 0.363424 0.000000
vt 0.375000 0.988424
vt 0.625000 0.988424
vt 0.636576 0.000000
vt 0.625000 0.486964
vt 0.861964 0.250000
vt 0.138036 0.250000
vt 0.375000 0.486964
vt 0.138036 0.000000
vt 0.375000 0.763036
vt 0.625000 0.763036
vt 0.861964 0.000000
vt 0.861964 0.240366
vt 0.636576 0.240366
vt 0.625000 0.240366
vt 0.375000 0.240366
vt 0.363424 0.240366
vt 0.138036 0.240366
vt 0.125000 0.240366
vt 0.375000 0.509634
vt 0.625000 0.509634
vt 0.875000 0.240366
vt 0.861964 0.009003
vt 0.636576 0.009003
vt 0.625000 0.009003
vt 0.375000 0.009003
vt 0.363424 0.009003
vt 0.138036 0.009003
vt 0.125000 0.009003
vt 0.375000 0.740997
vt 0.625000 0.740997
vt 0.875000 0.009003
vt 0.415319 0.250000
vt 0.415319 0.261576
vt 0.415319 0.486964
vt 0.415319 0.500000
vt 0.415319 0.509634
vt 0.415319 0.740997
vt 0.415319 0.750000
vt 0.415319 0.763036
vt 0.415319 0.988424
vt 0.415319 0.000000
vt 0.415319 1.000000
vt 0.415319 0.009003
vt 0.415319 0.240366
vt 0.569713 0.250000
vt 0.569713 0.261576
vt 0.569713 0.486964
vt 0.569713 0.500000
vt 0.569713 0.509634
vt 0.569713 0.740997
vt 0.569713 0.750000
vt 0.569713 0.763036
vt 0.569713 0.988424
vt 0.569713 0.000000
vt 0.569713 1.000000
vt 0.569713 0.009003
vt 0.569713 0.240366
vn -0.483021 -0.593228 0.644028
vn -0.483021 -0.593228 0.644028
vn -0.483021 -0.593228 0.644028
vn -0.483021 -0.593228 0.644028
vn -0.750047 0.661384 0.000000
vn -0.750047 0.661384 0.000000
vn -0.750047 0.661384 0.000000
vn -0.750047 0.661384 0.000000
vn -0.483023 -0.593228 -0.644026
vn -0.483023 -0.593228 -0.644026
vn -0.483023 -0.593228 -0.644026
vn -0.483023 -0.593228 -0.644026
vn -0.763364 -0.645968 0.000000
vn -0.763364 -0.645968 0.000000
vn -0.763364 -0.645968 0.000000
vn -0.763364 -0.645968 0.000000
vn 0.893043 -0.449771 -0.013411
vn 0.893043 -0.449771 -0.013411
vn 0.893043 -0.449771 -0.013411
vn 0.893043 -0.449771 -0.013411
vn -0.884670 -0.466022 -0.013477
vn -0.884670 -0.466023 -0.013477
vn -0.884670 -0.466022 -0.013477
vn -0.884670 -0.466023 -0.013477
vn -0.750047 0.661384 0.000000
vn -0.750047 0.661384 0.000000
vn -0.750047 0.661384 0.000000
vn -0.750047 0.661384 0.000000
vn -0.901169 -0.433467 0.000000
vn -0.901169 -0.433467 0.000000
vn -0.901169 -0.433467 0.000000
vn -0.901169 -0.433467 0.000000
vn -0.763365 -0.645968 0.000000
vn -0.763365 -0.645968 0.000000
vn -0.763365 -0.645968 0.000000
vn -0.763365 -0.645968 0.000000
vn 0.908439 -0.418018 0.000000
vn 0.908439 -0.418018 0.000000
vn 0.908439 -0.418018 0.000000
vn 0.908439 -0.418018 0.000000
vn -0.750048 0.661384 0.000000
vn -0.750048 0.661384 0.000000
vn -0.750048 0.661384 0.000000
vn -0.750048 0.661384 0.000000
vn -0.884824 -0.465650 0.016002
vn -0.884824 -0.465650 0.016002
vn -0.884824 -0.465650 0.016002
vn -0.884824 -0.465650 0.016002
vn -0.763365 -0.645968 0.000000
vn -0.763365 -0.645968 0.000000
vn -0.763365 -0.645968 0.000000
vn -0.763365 -0.645968 0.000000
vn 0.893202 -0.449376 0.015883
vn 0.893202 -0.449376 0.015883
vn 0.893202 -0.449376 0.015883
vn 0.893202 -0.449376 0.015883
vn 0.888403 0.459064 0.000000
vn 0.888403 0.459064 0.000000
vn 0.888403 0.459064 0.000000
vn 0.888403 0.459064 0.000000
vn 0.870377 0.492196 -0.013648
vn 0.870377 0.492196 -0.013648
vn 0.870377 0.492196 -0.013648
vn 0.870377 0.492196 -0.013648
vn -0.505976 0.611381 0.608442
vn -0.505976 0.611381 0.608442
vn -0.505976 0.611381 0.608442
vn -0.505976 0.611381 0.608442
vn -0.870249 0.492418 -0.013829
vn -0.870249 0.492418 -0.013829
vn -0.870249 0.492418 -0.013829
vn -0.870249 0.492418 -0.013829
vn -0.888403 0.459064 0.000000
vn -0.888403 0.459064 0.000000
vn -0.888403 0.459064 0.000000
vn -0.888403 0.459064 0.000000
vn -0.870402 0.492067 0.016444
vn -0.870402 0.492067 0.016444
vn -0.870402 0.492067 0.016444
vn -0.870402 0.492067 0.016444
vn -0.505976 0.611381 -0.608442
vn -0.505976 0.611381 -0.608442
vn -0.505976 0.611381 -0.608442
vn -0.505976 0.611381 -0.608442
vn 0.870552 0.491810 0.016189
vn 0.870552 0.491810 0.016189
vn 0.870552 0.491810 0.016189
vn 0.870552 0.491810 0.016189
vn 1.000000 0.000000 0.000000
vn 1.000000 0.000000 0.000000
vn 1.000000 0.000000 0.000000
vn 1.000000 0.000000 0.000000
vn 0.999598 0.000001 -0.028344
vn 0.999598 0.000001 -0.028344
vn 0.999598 0.000001 -0.028344
vn 0.999598 0.000001 -0.028344
vn -0.700453 0.000000 0.713699
vn -0.700453 0.000000 0.713698
vn -0.700453 0.000000 0.713699
vn -0.700453 0.000000 0.713699
vn -0.999582 0.000001 -0.028901
vn -0.999582 0.000001 -0.028901
vn -0.999582 0.000001 -0.028901
vn -0.999582 0.000001 -0.028901
vn -1.000000 0.000000 0.000000
vn -1.000000 0.000000 0.000000
vn -1.000000 0.000000 0.000000
vn -1.000000 0.000000 0.000000
vn -0.999417 0.000000 0.034134
vn -0.999417 0.000000 0.034134
vn -0.999417 0.000000 0.034134
vn -0.999417 0.000000 0.034134
vn -0.700453 0.000000 -0.713699
vn -0.700453 0.000000 -0.713699
vn -0.700453 0.000000 -0.713698
vn -0.700453 0.000000 -0.713699
vn 0.999443 0.000000 0.033359
vn 0.999443 0.000000 0.033359
vn 0.999443 0.000000 0.033359
vn 0.999443 0.000000 0.033359
vn 0.000000 1.000000 0.000000
vn 0.000000 1.000000 0.000000
vn 0.000000 1.000000 0.000000
vn 0.000000 1.000000 0.000000
vn 0.000000 1.000000 0.000000
vn 0.000000 1.000000 0.000000
vn 0.000000 1.000000 0.000000
vn 0.000000 1.000000 0.000000
vn 0.000000 1.000000 0.000000
vn 0.000000 1.000000 0.000000
vn 0.000762 0.625218 -0.780450
vn 0.000762 0.625218 -0.780450
vn 0.000762 0.625218 -0.780450
vn 0.000762 0.625218 -0.780450
vn 0.000000 0.000000 -1.000000
vn 0.000000 0.000000 -1.000000
vn 0.000000 0.000000 -1.000000
vn 0.000000 0.000000 -1.000000
vn 0.000727 -0.617540 -0.786539
vn 0.000727 -0.617540 -0.786539
vn 0.000727 -0.617540 -0.786539
vn 0.000727 -0.617540 -0.786539
vn 0.000000 -1.000000 0.000000
vn 0.000000 -1.000000 0.000000
vn 0.000000 -1.000000 0.000000
vn 0.000000 -1.000000 0.000000
vn 0.000000 -1.000000 0.000000
vn 0.000000 -1.000000 0.000000
vn 0.000000 -1.000000 0.000000
vn 0.000000 -1.000000 0.000000
vn 0.000727 -0.617540 0.786539
vn 0.000727 -0.617540 0.786539
vn 0.000727 -0.617540 0.786539
vn 0.000727 -0.617540 0.786539
vn 0.000000 0.000000 1.000000
vn 0.000000 0.000000 1.000000
vn 0.000000 0.000000 1.000000
vn 0.000000 0.000000 1.000000
vn 0.000762 0.625217 0.780450
vn 0.000762 0.625217 0.780450
vn 0.000762 0.625217 0.780450
vn 0.000762 0.625217 0.780450
vn 0.735019 0.678047 0.000000
vn 0.735019 0.678047 0.000000
vn 0.735019 0.678047 0.000000
vn 0.735019 0.678047 0.000000
vn 0.735019 0.678046 0.000000
vn 0.735019 0.678046 0.000000
vn 0.735019 0.678046 0.000000
vn 0.735019 0.678046 0.000000
vn 0.735019 0.678046 0.000000
vn 0.735019 0.678046 0.000000
vn 0.735019 0.678046 0.000000
vn 0.735019 0.678046 0.000000
vn 0.440623 0.609587 -0.658980
vn 0.440623 0.609587 -0.658980
vn 0.440623 0.609587 -0.658980
vn 0.440623 0.609587 -0.658980
vn 0.612917 0.000000 -0.790147
vn 0.612917 0.000000 -0.790147
vn 0.612917 0.000000 -0.790147
vn 0.612917 0.000000 -0.790147
vn 0.402718 -0.585492 -0.703574
vn 0.402718 -0.585492 -0.703574
vn 0.402718 -0.585492 -0.703574
vn 0.402718 -0.585492 -0.703574
vn 0.738559 -0.674189 0.000000
vn 0.738559 -0.674189 0.000000
vn 0.738559 -0.674189 0.000000
vn 0.738559 -0.674189 0.000000
vn 0.738559 -0.674189 0.000000
vn 0.738559 -0.674189 0.000000
vn 0.738559 -0.674189 0.000000
vn 0.738559 -0.674189 0.000000
vn 0.738559 -0.674189 0.000000
vn 0.738559 -0.674189 0.000000
vn 0.738559 -0.674189 0.000000
vn 0.738559 -0.674189 0.000000
vn 0.402718 -0.585492 0.703574
vn 0.402718 -0.585492 0.703574
vn 0.402718 -0.585492 0.703574
vn 0.402718 -0.585492 0.703574
vn 0.612917 0.000000 0.790147
vn 0.612917 0.000000 0.790147
vn 0.612917 0.000000 0.790147
vn 0.612917 0.000000 0.790147
vn 0.440622 0.609587 0.658980
vn 0.440622 0.609587 0.658980
vn 0.440623 0.609587 0.658980
vn 0.440622 0.609587 0.658980
s off
g pCube1
usemtl initialShadingGroup
f 1/1/1 42/60/2 43/62/3 28/44/4
f 3/3/5 33/51/6 34/52/7 10/18/8
f 31/48/9 38/56/10 39/57/11 7/7/12
f 11/20/13 41/59/14 42/61/15 1/9/16
f 2/2/17 12/22/18 26/42/19 27/43/20
f 11/19/21 1/1/22 28/44/23 29/45/24
f 10/18/25 34/52/26 35/53/27 14/26/28
f 15/27/29 11/19/30 29/45/31 30/46/32
f 15/28/33 40/58/34 41/59/35 11/20/36
f 26/42/37 12/22/38 16/30/39 25/41/40
f 14/26/41 35/53/42 36/54/43 5/5/44
f 7/13/45 15/27/46 30/46/47 31/47/48
f 7/7/49 39/57/50 40/58/51 15/28/52
f 32/50/53 25/41/54 16/30/55 8/11/56
f 9/16/57 18/32/58 17/31/59 13/24/60
f 19/33/61 18/32/62 9/16/63 4/4/64
f 20/34/65 44/63/66 33/51/67 3/3/68
f 21/35/69 20/34/70 3/3/71 10/17/72
f 22/36/73 21/35/74 10/17/75 14/25/76
f 23/37/77 22/36/78 14/25/79 5/14/80
f 5/5/81 36/54/82 37/55/83 23/38/84
f 13/24/85 17/31/86 24/40/87 6/12/88
f 18/32/89 26/42/90 25/41/91 17/31/92
f 27/43/93 26/42/94 18/32/95 19/33/96
f 28/44/97 43/62/98 44/63/99 20/34/100
f 29/45/101 28/44/102 20/34/103 21/35/104
f 30/46/105 29/45/106 21/35/107 22/36/108
f 31/47/109 30/46/110 22/36/111 23/37/112
f 23/38/113 37/55/114 38/56/115 31/48/116
f 24/40/117 17/31/118 25/41/119 32/50/120
s 1
f 33/51/121 45/64/122 46/65/123 34/52/124
f 35/53/125 34/52/124 46/65/123 47/66/126
s off
f 36/54/127 35/53/128 47/66/129 48/67/130
f 37/55/131 36/54/132 48/67/133 49/68/134
f 38/56/135 37/55/136 49/68/137 50/69/138
f 39/57/139 38/56/140 50/69/141 51/70/142
s 2
f 40/58/143 39/57/144 51/70/145 52/71/146
f 41/59/147 40/58/143 52/71/146 53/72/148
f 42/61/149 41/59/147 53/72/148 54/74/150
s off
f 43/62/151 42/60/152 54/73/153 55/75/154
f 44/63/155 43/62/156 55/75/157 56/76/158
f 33/51/159 44/63/160 56/76/161 45/64/162
f 45/64/163 4/4/164 9/15/165 46/65/166
f 47/66/167 46/65/168 9/15/169 13/23/170
f 48/67/171 47/66/172 13/23/173 6/6/174
f 49/68/175 48/67/176 6/6/177 24/39/178
f 50/69/179 49/68/180 24/39/181 32/49/182
f 51/70/183 50/69/184 32/49/185 8/8/186
f 52/71/187 51/70/188 8/8/189 16/29/190
f 53/72/191 52/71/192 16/29/193 12/21/194
f 54/74/195 53/72/196 12/21/197 2/10/198
f 55/75/199 54/73/200 2/2/201 27/43/202
f 56/76/203 55/75/204 27/43/205 19/33/206
f 45/64/207 56/76/208 19/33/209 4/4/210
