# This file uses centimeters as units for non-parametric coordinates.

mtllib TabletObj.mtl
g default
v 1.523586 0.018178 0.038175
v 1.523586 2.123284 0.038175
v 1.375887 2.009197 -0.035700
v 1.375887 0.132266 -0.035700
v 1.514183 2.106706 -0.001636
v 1.497545 0.047733 -0.000994
v 1.508396 2.133585 0.038175
v 1.492207 2.112662 -0.001636
v 1.359586 2.017624 -0.035700
v 1.359586 0.123838 -0.035700
v 1.483413 0.036465 -0.000994
v 1.508396 0.007877 0.038175
v 1.356455 1.990370 -0.036204
v 1.388243 1.993696 -0.035700
v 1.524304 2.086153 -0.001636
v 1.538296 2.107093 0.038175
v 1.527556 2.107093 0.091486
v 1.527556 0.041570 0.091486
v 1.356493 0.158228 -0.036119
v 1.388243 0.153855 -0.035700
v 1.513677 0.070047 -0.000994
v 1.538296 0.041570 0.038175
v 1.456881 2.123457 0.091486
v 1.456881 0.025320 0.091486
v 1.439559 -0.008905 0.038175
v 1.392777 0.017082 -0.000994
v 1.293528 0.111197 -0.035700
v 1.293528 0.155323 -0.035700
v 1.293528 1.993796 -0.035700
v 1.293528 2.030265 -0.035700
v 1.392777 2.130062 -0.000994
v 1.439559 2.150367 0.038175
v 1.456881 0.110196 0.091486
v 1.551676 0.110196 0.091486
v 1.562260 0.110196 0.038175
v 1.532402 0.142264 -0.000994
v 1.406776 0.217035 -0.035700
v 1.356347 0.217035 -0.035700
v 1.293528 0.217035 -0.035700
v 1.456881 2.028201 0.091486
v 1.551676 2.028201 0.091486
v 1.562260 2.028201 0.038175
v 1.548427 1.998179 -0.000994
v 1.406776 1.921373 -0.035700
v 1.356347 1.921373 -0.035700
v 1.293528 1.921373 -0.035700
v 1.448069 2.022423 0.081688
v 1.448069 0.115974 0.081688
v -0.001953 0.110196 0.091486
v -0.001953 0.115974 0.081688
v -0.001753 2.022423 0.081688
v -0.001753 2.028201 0.091486
v -0.001753 2.123457 0.091486
v -0.001745 2.150367 0.038175
v -0.001753 2.130062 -0.000994
v -0.001737 2.030265 -0.035700
v -0.001753 1.993796 -0.035700
v -0.052304 1.921373 -0.035700
v -0.052089 0.217035 -0.035700
v -0.001538 0.155304 -0.035700
v -0.001953 0.111197 -0.035700
v -0.001538 0.011401 -0.000994
v -0.001560 -0.008905 0.038175
v -0.001538 0.025320 0.091486
v -1.668399 0.018178 0.038175
v -1.622693 0.047733 -0.000994
v -1.651007 0.070047 -0.000994
v -1.694216 0.041570 0.038175
v -1.409166 0.132266 -0.035700
v -1.430852 0.153855 -0.035700
v -1.641738 2.133585 0.038175
v -1.668399 2.123284 0.038175
v -1.651894 2.106706 -0.001636
v -1.613324 2.112662 -0.001636
v -1.380555 2.017624 -0.035700
v -1.409166 2.009197 -0.035700
v -1.380555 0.123838 -0.035700
v -1.359983 0.158228 -0.036119
v -1.597890 0.036465 -0.000994
v -1.641738 0.007877 0.038175
v -1.675366 0.041570 0.091486
v -1.520919 2.150367 0.038175
v -1.438809 2.130062 -0.000994
v -1.264614 2.030265 -0.035700
v -1.264614 0.111197 -0.035700
v -1.297019 0.155323 -0.035700
v -1.438809 0.017082 -0.000994
v -1.520919 -0.008905 0.038175
v -1.551322 0.025320 0.091486
v -1.359945 1.990370 -0.036204
v -1.297019 1.993796 -0.035700
v -1.430852 1.993696 -0.035700
v -1.669658 2.086153 -0.001636
v -1.694216 2.107093 0.038175
v -1.675366 2.107093 0.091486
v -1.551322 2.123457 0.091486
v -1.551322 2.028201 0.091486
v -1.717700 2.028201 0.091486
v -1.410388 1.921373 -0.035700
v -1.347570 1.921373 -0.035700
v -1.513931 1.921373 -0.035700
v -1.711997 1.998179 -0.000994
v -1.736277 2.028201 0.038175
v -1.717700 0.110196 0.091486
v -1.551322 0.110196 0.091486
v -1.736277 0.110196 0.038175
v -1.683873 0.142264 -0.000994
v -1.513931 0.217035 -0.035700
v -1.410388 0.217035 -0.035700
v -1.347570 0.217035 -0.035700
v -1.451560 2.022423 0.081688
v -1.451560 0.115974 0.081688
vt 0.625000 0.000000
vt 0.625000 0.250000
vt 0.625000 0.500000
vt 0.625000 0.750000
vt 0.625000 1.000000
vt 0.875000 0.000000
vt 0.875000 0.250000
vt 0.625000 0.375000
vt 0.750000 0.250000
vt 0.625000 0.875000
vt 0.750000 0.000000
vt 0.623478 0.250000
vt 0.623478 0.375000
vt 0.623478 0.500000
vt 0.623478 0.750000
vt 0.623478 0.875000
vt 0.623478 0.000000
vt 0.623478 1.000000
vt 0.623478 0.502771
vt 0.625000 0.502771
vt 0.875000 0.247229
vt 0.750000 0.247229
vt 0.625000 0.247229
vt 0.623478 0.247229
vt 0.623478 0.003963
vt 0.623478 0.746037
vt 0.625000 0.746037
vt 0.875000 0.003963
vt 0.750000 0.003963
vt 0.625000 0.003963
vt 0.615964 0.247229
vt 0.615964 0.003963
vt 0.615964 0.000000
vt 0.615964 1.000000
vt 0.615964 0.875000
vt 0.615964 0.750000
vt 0.615964 0.746037
vt 0.615964 0.502771
vt 0.615964 0.500000
vt 0.615964 0.375000
vt 0.615964 0.250000
vt 0.615964 0.013803
vt 0.623478 0.013803
vt 0.625000 0.013803
vt 0.750000 0.013803
vt 0.625000 0.736197
vt 0.875000 0.013803
vt 0.623478 0.736197
vt 0.615964 0.736197
vt 0.615964 0.236185
vt 0.623478 0.236185
vt 0.625000 0.236185
vt 0.750000 0.236185
vt 0.625000 0.513815
vt 0.875000 0.236185
vt 0.623478 0.513815
vt 0.615964 0.513815
vt 0.615964 0.236185
vt 0.615964 0.013803
vt 0.500117 0.013803
vt 0.500117 0.013803
vt 0.500117 0.236185
vt 0.500117 0.236185
vt 0.500117 0.247229
vt 0.500117 0.250000
vt 0.500117 0.375000
vt 0.500117 0.500000
vt 0.500117 0.502771
vt 0.500117 0.513815
vt 0.500117 0.736197
vt 0.500117 0.746037
vt 0.500117 0.750000
vt 0.500117 0.875000
vt 0.500117 0.000000
vt 0.500117 1.000000
vt 0.500117 0.003963
vt 0.625000 0.000000
vt 0.750000 0.000000
vt 0.750000 0.003963
vt 0.625000 0.003963
vt 0.875000 0.000000
vt 0.875000 0.003963
vt 0.623478 0.250000
vt 0.625000 0.250000
vt 0.625000 0.375000
vt 0.623478 0.375000
vt 0.623478 0.500000
vt 0.625000 0.500000
vt 0.623478 0.750000
vt 0.623478 0.746037
vt 0.625000 0.746037
vt 0.625000 0.750000
vt 0.623478 0.875000
vt 0.625000 0.875000
vt 0.623478 1.000000
vt 0.625000 1.000000
vt 0.623478 0.003963
vt 0.623478 0.000000
vt 0.615964 0.250000
vt 0.615964 0.375000
vt 0.615964 0.500000
vt 0.615964 0.750000
vt 0.615964 0.746037
vt 0.615964 0.875000
vt 0.615964 1.000000
vt 0.615964 0.003963
vt 0.615964 0.000000
vt 0.623478 0.502771
vt 0.615964 0.502771
vt 0.625000 0.502771
vt 0.750000 0.250000
vt 0.750000 0.247229
vt 0.875000 0.247229
vt 0.875000 0.250000
vt 0.625000 0.247229
vt 0.623478 0.247229
vt 0.615964 0.247229
vt 0.615964 0.236185
vt 0.623478 0.236185
vt 0.623478 0.513815
vt 0.615964 0.513815
vt 0.625000 0.513815
vt 0.750000 0.236185
vt 0.875000 0.236185
vt 0.625000 0.236185
vt 0.623478 0.013803
vt 0.615964 0.013803
vt 0.625000 0.013803
vt 0.750000 0.013803
vt 0.875000 0.013803
vt 0.623478 0.736197
vt 0.625000 0.736197
vt 0.615964 0.736197
vt 0.615964 0.236185
vt 0.615964 0.013803
vt 0.500117 0.013803
vt 0.500117 0.013803
vt 0.500117 0.236185
vt 0.500117 0.236185
vt 0.500117 0.247229
vt 0.500117 0.250000
vt 0.500117 0.375000
vt 0.500117 0.500000
vt 0.500117 0.502771
vt 0.500117 0.513815
vt 0.500117 0.736197
vt 0.500117 0.746037
vt 0.500117 0.750000
vt 0.500117 0.875000
vt 0.500117 1.000000
vt 0.500117 0.003963
vt 0.500117 0.000000
vn 0.600850 -0.405445 -0.688907
vn 0.600850 -0.405445 -0.688907
vn 0.600850 -0.405445 -0.688907
vn 0.600850 -0.405445 -0.688907
vn 0.189750 -0.123123 -0.974082
vn 0.189750 -0.123123 -0.974082
vn 0.189750 -0.123123 -0.974082
vn 0.189750 -0.123123 -0.974082
vn 0.349615 0.799263 -0.488823
vn 0.349615 0.799263 -0.488822
vn 0.349615 0.799263 -0.488822
vn 0.349615 0.799263 -0.488822
vn 0.084432 0.224679 -0.970768
vn 0.084432 0.224679 -0.970768
vn 0.084432 0.224679 -0.970768
vn 0.084432 0.224679 -0.970768
vn 0.009477 -0.009047 -0.999914
vn 0.009477 -0.009047 -0.999914
vn 0.009477 -0.009047 -0.999914
vn 0.009477 -0.009047 -0.999914
vn 0.131751 -0.203583 -0.970152
vn 0.131751 -0.203583 -0.970152
vn 0.131751 -0.203583 -0.970152
vn 0.131751 -0.203583 -0.970152
vn 0.422392 -0.574227 -0.701319
vn 0.422392 -0.574227 -0.701319
vn 0.422392 -0.574227 -0.701319
vn 0.422392 -0.574227 -0.701319
vn 0.728036 -0.646064 0.229272
vn 0.728036 -0.646064 0.229272
vn 0.728036 -0.646064 0.229272
vn 0.728036 -0.646064 0.229272
vn 0.163452 0.815083 -0.555808
vn 0.163452 0.815083 -0.555808
vn 0.163452 0.815083 -0.555808
vn 0.163452 0.815083 -0.555808
vn 0.047434 0.281794 -0.958302
vn 0.047434 0.281794 -0.958302
vn 0.047434 0.281794 -0.958302
vn 0.047434 0.281794 -0.958302
vn -0.002590 -0.005435 -0.999982
vn -0.002590 -0.005435 -0.999982
vn -0.002590 -0.005435 -0.999982
vn -0.002590 -0.005435 -0.999982
vn 0.059637 -0.291799 -0.954619
vn 0.059637 -0.291799 -0.954619
vn 0.059637 -0.291799 -0.954619
vn 0.059637 -0.291799 -0.954619
vn 0.165864 -0.731390 -0.661482
vn 0.165864 -0.731390 -0.661482
vn 0.165864 -0.731390 -0.661482
vn 0.165864 -0.731390 -0.661482
vn 0.202643 -0.855866 0.475845
vn 0.202643 -0.855866 0.475845
vn 0.202643 -0.855866 0.475845
vn 0.202643 -0.855866 0.475845
vn -0.002905 0.008055 -0.999963
vn -0.002905 0.008055 -0.999963
vn -0.002905 0.008055 -0.999963
vn -0.002905 0.008055 -0.999963
vn 0.012009 0.014382 -0.999824
vn 0.012009 0.014382 -0.999824
vn 0.012009 0.014382 -0.999824
vn 0.012009 0.014382 -0.999824
vn 0.169933 0.105940 -0.979744
vn 0.169933 0.105940 -0.979744
vn 0.169933 0.105940 -0.979745
vn 0.169933 0.105940 -0.979744
vn 0.738910 0.499336 -0.452410
vn 0.738910 0.499336 -0.452410
vn 0.738910 0.499336 -0.452410
vn 0.738910 0.499336 -0.452410
vn 0.652911 0.736898 0.175181
vn 0.652911 0.736898 0.175181
vn 0.652911 0.736898 0.175181
vn 0.652911 0.736898 0.175181
vn 0.214008 0.900765 0.377919
vn 0.214008 0.900765 0.377919
vn 0.214008 0.900765 0.377919
vn 0.214008 0.900765 0.377919
vn -0.000000 0.000000 1.000000
vn -0.000000 0.000000 1.000000
vn -0.000000 0.000000 1.000000
vn -0.000000 0.000000 1.000000
vn -0.004107 -0.003562 -0.999985
vn -0.004107 -0.003562 -0.999985
vn -0.004107 -0.003562 -0.999985
vn -0.004107 -0.003562 -0.999985
vn 0.006244 -0.002754 -0.999977
vn 0.006244 -0.002754 -0.999977
vn 0.006244 -0.002754 -0.999977
vn 0.006244 -0.002754 -0.999977
vn 0.210072 0.051990 -0.976303
vn 0.210072 0.051990 -0.976302
vn 0.210072 0.051990 -0.976303
vn 0.210072 0.051990 -0.976303
vn 0.854309 0.244429 -0.458705
vn 0.854309 0.244429 -0.458705
vn 0.854309 0.244429 -0.458705
vn 0.854309 0.244429 -0.458705
vn 0.939529 0.286316 0.187905
vn 0.939529 0.286316 0.187905
vn 0.939529 0.286316 0.187905
vn 0.939529 0.286316 0.187905
vn 0.000000 0.000000 1.000000
vn 0.000000 0.000000 1.000000
vn 0.000000 0.000000 1.000000
vn 0.000000 0.000000 1.000000
vn 0.927384 -0.324896 0.185476
vn 0.927384 -0.324896 0.185476
vn 0.927384 -0.324896 0.185476
vn 0.927384 -0.324896 0.185476
vn 0.714990 -0.216713 -0.664699
vn 0.714990 -0.216713 -0.664699
vn 0.714990 -0.216713 -0.664699
vn 0.714990 -0.216713 -0.664699
vn 0.228806 -0.062962 -0.971434
vn 0.228806 -0.062962 -0.971434
vn 0.228806 -0.062962 -0.971434
vn 0.228806 -0.062962 -0.971434
vn 0.005236 0.002643 -0.999983
vn 0.005236 0.002643 -0.999983
vn 0.005236 0.002643 -0.999983
vn 0.005236 0.002643 -0.999983
vn -0.003409 0.003470 -0.999988
vn -0.003409 0.003470 -0.999988
vn -0.003409 0.003470 -0.999988
vn -0.003409 0.003470 -0.999988
vn 0.000000 0.000000 1.000000
vn 0.000000 0.000000 1.000000
vn 0.980854 0.000000 0.194743
vn 0.980854 0.000000 0.194743
vn 0.980854 0.000000 0.194743
vn 0.980854 0.000000 0.194743
vn 0.873302 -0.003708 -0.487166
vn 0.873302 -0.003708 -0.487166
vn 0.873302 -0.003708 -0.487166
vn 0.873302 -0.003708 -0.487166
vn 0.251369 -0.001131 -0.967891
vn 0.251369 -0.001131 -0.967891
vn 0.251369 -0.001131 -0.967891
vn 0.251369 -0.001131 -0.967891
vn 0.000000 0.000000 -1.000000
vn 0.000000 0.000000 -1.000000
vn 0.000000 0.000000 -1.000000
vn 0.000000 0.000000 -1.000000
vn 0.000000 0.000000 -1.000000
vn 0.000000 0.000000 -1.000000
vn -0.743560 0.000000 0.668669
vn -0.743560 0.000000 0.668669
vn -0.743560 0.000000 0.668669
vn -0.743560 0.000000 0.668669
vn 0.000000 0.861400 0.507928
vn 0.000000 0.861400 0.507928
vn 0.000000 0.861400 0.507928
vn 0.000000 0.861400 0.507928
vn 0.000000 0.000000 1.000000
vn 0.000000 0.000000 1.000000
vn 0.000000 0.000000 1.000000
vn 0.000000 0.000000 1.000000
vn 0.000000 -0.861398 0.507931
vn 0.000000 -0.861398 0.507931
vn 0.000000 -0.861398 0.507931
vn 0.000000 -0.861398 0.507931
vn 0.000000 0.000000 1.000000
vn 0.000000 0.000000 1.000000
vn 0.000000 0.000000 1.000000
vn 0.000000 0.000000 1.000000
vn 0.000000 0.892719 0.450615
vn 0.000000 0.892718 0.450615
vn 0.000000 0.892719 0.450615
vn 0.000000 0.892719 0.450615
vn -0.000000 0.887793 -0.460243
vn -0.000000 0.887793 -0.460243
vn -0.000000 0.887793 -0.460243
vn -0.000000 0.887793 -0.460243
vn 0.000000 0.328470 -0.944515
vn 0.000000 0.328470 -0.944515
vn 0.000000 0.328470 -0.944515
vn 0.000000 0.328470 -0.944514
vn 0.000000 0.000000 -1.000000
vn 0.000000 0.000000 -1.000000
vn 0.000000 0.000000 -1.000000
vn 0.000000 0.000000 -1.000000
vn 0.000000 0.000000 -1.000000
vn 0.000000 0.000000 -1.000000
vn 0.000000 0.000000 -1.000000
vn 0.000000 0.000000 -1.000000
vn 0.000000 0.000000 -1.000000
vn 0.000000 0.000000 -1.000000
vn 0.000000 0.000000 -1.000000
vn 0.000000 0.000000 -1.000000
vn 0.000000 0.000000 -1.000000
vn 0.000000 0.000000 -1.000000
vn 0.000000 0.000000 -1.000000
vn 0.000000 0.000000 -1.000000
vn 0.000000 0.000000 -1.000000
vn 0.000000 0.000000 -1.000000
vn 0.000711 -0.336690 -0.941615
vn 0.000711 -0.336690 -0.941615
vn 0.000711 -0.336690 -0.941615
vn 0.000711 -0.336690 -0.941615
vn 0.001724 -0.860463 -0.509511
vn 0.001724 -0.860463 -0.509511
vn 0.001724 -0.860463 -0.509511
vn 0.001724 -0.860462 -0.509511
vn -0.000000 -0.841513 0.540238
vn -0.000000 -0.841513 0.540237
vn -0.000000 -0.841513 0.540238
vn -0.000000 -0.841513 0.540238
vn 0.000000 0.000000 1.000000
vn 0.000000 0.000000 1.000000
vn -0.393679 -0.466249 -0.792230
vn -0.393679 -0.466249 -0.792230
vn -0.393680 -0.466249 -0.792230
vn -0.393679 -0.466249 -0.792230
vn -0.109449 -0.124649 -0.986146
vn -0.109449 -0.124649 -0.986146
vn -0.109449 -0.124649 -0.986146
vn -0.109449 -0.124649 -0.986146
vn -0.207963 0.834448 -0.510342
vn -0.207963 0.834448 -0.510342
vn -0.207963 0.834448 -0.510342
vn -0.207963 0.834448 -0.510342
vn -0.048222 0.225223 -0.973113
vn -0.048222 0.225223 -0.973113
vn -0.048222 0.225223 -0.973113
vn -0.048222 0.225223 -0.973113
vn -0.004517 -0.007570 -0.999961
vn -0.004517 -0.007570 -0.999961
vn -0.004517 -0.007570 -0.999961
vn -0.004517 -0.007570 -0.999961
vn -0.075510 -0.204786 -0.975890
vn -0.075510 -0.204786 -0.975890
vn -0.075510 -0.204786 -0.975890
vn -0.075510 -0.204786 -0.975890
vn -0.256615 -0.612305 -0.747817
vn -0.256615 -0.612305 -0.747817
vn -0.256615 -0.612305 -0.747817
vn -0.256615 -0.612305 -0.747817
vn -0.517683 -0.806306 0.286138
vn -0.517683 -0.806306 0.286138
vn -0.517683 -0.806306 0.286138
vn -0.517683 -0.806306 0.286138
vn -0.093979 0.822538 -0.560891
vn -0.093979 0.822538 -0.560891
vn -0.093979 0.822538 -0.560891
vn -0.093979 0.822538 -0.560891
vn -0.027046 0.282008 -0.959031
vn -0.027046 0.282008 -0.959031
vn -0.027046 0.282008 -0.959031
vn -0.027046 0.282008 -0.959031
vn 0.001902 -0.005046 -0.999986
vn 0.001902 -0.005046 -0.999985
vn 0.001902 -0.005046 -0.999985
vn 0.001902 -0.005046 -0.999985
vn -0.034019 -0.292151 -0.955767
vn -0.034019 -0.292151 -0.955767
vn -0.034019 -0.292151 -0.955767
vn -0.034019 -0.292151 -0.955767
vn -0.095392 -0.738280 -0.667715
vn -0.095392 -0.738280 -0.667715
vn -0.095392 -0.738280 -0.667715
vn -0.095392 -0.738280 -0.667715
vn -0.117092 -0.867987 0.482585
vn -0.117092 -0.867987 0.482585
vn -0.117092 -0.867987 0.482585
vn -0.117092 -0.867987 0.482585
vn 0.002144 0.007515 -0.999969
vn 0.002144 0.007515 -0.999969
vn 0.002144 0.007515 -0.999969
vn 0.002144 0.007515 -0.999969
vn -0.005678 0.011935 -0.999913
vn -0.005678 0.011935 -0.999913
vn -0.005678 0.011935 -0.999913
vn -0.005678 0.011935 -0.999913
vn -0.097778 0.106989 -0.989441
vn -0.097778 0.106989 -0.989441
vn -0.097778 0.106989 -0.989441
vn -0.097778 0.106989 -0.989441
vn -0.529881 0.628483 -0.569417
vn -0.529881 0.628483 -0.569417
vn -0.529881 0.628483 -0.569417
vn -0.529881 0.628483 -0.569417
vn -0.440832 0.873252 0.207600
vn -0.440832 0.873252 0.207600
vn -0.440832 0.873252 0.207600
vn -0.440832 0.873252 0.207600
vn -0.123863 0.915028 0.383903
vn -0.123863 0.915028 0.383903
vn -0.123863 0.915028 0.383903
vn -0.123863 0.915028 0.383903
vn 0.000000 0.000000 1.000000
vn 0.000000 0.000000 1.000000
vn 0.000000 0.000000 1.000000
vn 0.000000 0.000000 1.000000
vn 0.004188 -0.006556 -0.999970
vn 0.004188 -0.006556 -0.999970
vn 0.004188 -0.006556 -0.999970
vn 0.004188 -0.006556 -0.999970
vn -0.002906 -0.000822 -0.999995
vn -0.002906 -0.000822 -0.999995
vn -0.002906 -0.000822 -0.999995
vn -0.002906 -0.000822 -0.999995
vn -0.120593 0.090393 -0.988578
vn -0.120593 0.090393 -0.988578
vn -0.120593 0.090393 -0.988578
vn -0.120593 0.090393 -0.988578
vn -0.683542 0.343253 -0.644164
vn -0.683542 0.343253 -0.644164
vn -0.683542 0.343253 -0.644164
vn -0.683542 0.343253 -0.644164
vn -0.842359 0.450553 0.295691
vn -0.842359 0.450553 0.295691
vn -0.842359 0.450553 0.295691
vn -0.842359 0.450553 0.295691
vn 0.000000 0.000000 1.000000
vn 0.000000 0.000000 1.000000
vn 0.000000 0.000000 1.000000
vn 0.000000 0.000000 1.000000
vn -0.816140 -0.501837 0.286487
vn -0.816140 -0.501837 0.286487
vn -0.816140 -0.501838 0.286487
vn -0.816140 -0.501837 0.286487
vn -0.503447 -0.267827 -0.821468
vn -0.503447 -0.267827 -0.821468
vn -0.503447 -0.267827 -0.821468
vn -0.503447 -0.267827 -0.821468
vn -0.130039 -0.111356 -0.985236
vn -0.130039 -0.111356 -0.985236
vn -0.130039 -0.111356 -0.985236
vn -0.130039 -0.111356 -0.985236
vn -0.002420 0.000784 -0.999997
vn -0.002420 0.000784 -0.999997
vn -0.002420 0.000784 -0.999997
vn -0.002420 0.000784 -0.999997
vn 0.003476 0.006386 -0.999974
vn 0.003476 0.006386 -0.999973
vn 0.003476 0.006386 -0.999974
vn 0.003476 0.006386 -0.999974
vn 0.000000 0.000000 1.000000
vn 0.000000 0.000000 1.000000
vn -0.944307 0.000000 0.329066
vn -0.944307 0.000000 0.329066
vn -0.944307 0.000000 0.329066
vn -0.944307 0.000000 0.329066
vn -0.714526 -0.005325 -0.699589
vn -0.714526 -0.005325 -0.699589
vn -0.714526 -0.005325 -0.699589
vn -0.714526 -0.005325 -0.699589
vn -0.185354 -0.001464 -0.982671
vn -0.185354 -0.001464 -0.982671
vn -0.185354 -0.001464 -0.982671
vn -0.185354 -0.001464 -0.982671
vn 0.000000 0.000000 -1.000000
vn 0.000000 0.000000 -1.000000
vn 0.000000 0.000000 -1.000000
vn 0.000000 0.000000 -1.000000
vn 0.000000 0.000000 -1.000000
vn 0.000000 0.000000 -1.000000
vn 0.097750 0.000000 0.995211
vn 0.097750 0.000000 0.995211
vn 0.097750 0.000000 0.995211
vn 0.097750 0.000000 0.995211
vn 0.000000 0.861399 0.507929
vn 0.000000 0.861399 0.507929
vn 0.000000 0.861399 0.507929
vn 0.000000 0.861399 0.507929
vn 0.000000 0.000000 1.000000
vn 0.000000 0.000000 1.000000
vn 0.000000 0.000000 1.000000
vn 0.000000 0.000000 1.000000
vn 0.000000 -0.861400 0.507927
vn 0.000000 -0.861400 0.507927
vn 0.000000 -0.861400 0.507927
vn 0.000000 -0.861400 0.507927
vn 0.000000 0.000000 1.000000
vn 0.000000 0.000000 1.000000
vn 0.000000 0.000000 1.000000
vn 0.000000 0.000000 1.000000
vn -0.000000 0.892718 0.450615
vn -0.000000 0.892718 0.450615
vn -0.000000 0.892718 0.450615
vn -0.000000 0.892718 0.450615
vn 0.000000 0.887793 -0.460243
vn 0.000000 0.887793 -0.460243
vn 0.000000 0.887793 -0.460243
vn 0.000000 0.887793 -0.460243
vn 0.000000 0.328470 -0.944515
vn 0.000000 0.328470 -0.944515
vn 0.000000 0.328470 -0.944515
vn 0.000000 0.328470 -0.944514
vn 0.000000 0.000000 -1.000000
vn 0.000000 0.000000 -1.000000
vn 0.000000 0.000000 -1.000000
vn 0.000000 0.000000 -1.000000
vn 0.000000 0.000000 -1.000000
vn 0.000000 0.000000 -1.000000
vn -0.000000 0.000000 -1.000000
vn -0.000000 0.000000 -1.000000
vn -0.000000 0.000000 -1.000000
vn -0.000000 0.000000 -1.000000
vn 0.000000 0.000000 -1.000000
vn 0.000000 0.000000 -1.000000
vn 0.000000 0.000000 -1.000000
vn 0.000000 0.000000 -1.000000
vn -0.000708 -0.336452 -0.941700
vn -0.000708 -0.336452 -0.941700
vn -0.000708 -0.336452 -0.941700
vn -0.000708 -0.336452 -0.941700
vn -0.001653 -0.860153 -0.510033
vn -0.001653 -0.860153 -0.510033
vn -0.001653 -0.860153 -0.510033
vn -0.001653 -0.860153 -0.510033
vn 0.000000 -0.841513 0.540237
vn 0.000000 -0.841513 0.540237
vn 0.000000 -0.841513 0.540237
vn 0.000000 -0.841513 0.540237
vn 0.000000 0.000000 1.000000
vn 0.000000 0.000000 1.000000
s off
g pCube1
usemtl initialShadingGroup
f 1/1/1 6/11/2 21/29/3 22/30/4
f 21/29/5 6/11/6 4/6/7 20/28/8
f 7/12/9 2/2/10 5/8/11 8/13/12
f 9/14/13 8/13/14 5/8/15 3/3/16
f 10/15/17 19/26/18 20/27/19 4/4/20
f 11/16/21 10/15/22 4/4/23 6/10/24
f 12/18/25 11/16/26 6/10/27 1/5/28
f 22/30/29 18/25/30 12/17/31 1/1/32
f 32/41/33 7/12/34 8/13/35 31/40/36
f 30/39/37 31/40/38 8/13/39 9/14/40
f 27/36/41 28/37/42 19/26/43 10/15/44
f 26/35/45 27/36/46 10/15/47 11/16/48
f 25/34/49 26/35/50 11/16/51 12/18/52
f 18/25/53 24/32/54 25/33/55 12/17/56
f 13/19/57 29/38/58 30/39/59 9/14/60
f 14/20/61 13/19/62 9/14/63 3/3/64
f 5/9/65 15/22/66 14/21/67 3/7/68
f 16/23/69 15/22/70 5/9/71 2/2/72
f 7/12/73 17/24/74 16/23/75 2/2/76
f 32/41/77 23/31/78 17/24/79 7/12/80
f 17/24/81 23/31/82 40/50/83 41/51/84
f 45/56/85 46/57/86 29/38/87 13/19/88
f 44/54/89 45/56/90 13/19/91 14/20/92
f 15/22/93 43/53/94 44/55/95 14/21/96
f 42/52/97 43/53/98 15/22/99 16/23/100
f 17/24/101 41/51/102 42/52/103 16/23/104
s 1
f 34/43/105 33/42/106 24/32/107 18/25/108
s off
f 35/44/109 34/43/110 18/25/111 22/30/112
f 22/30/113 21/29/114 36/45/115 35/44/116
f 37/47/117 36/45/118 21/29/119 20/28/120
f 20/27/121 19/26/122 38/48/123 37/46/124
f 19/26/125 28/37/126 39/49/127 38/48/128
s 1
f 41/51/129 40/50/130 33/42/106 34/43/105
s off
f 42/52/131 41/51/132 34/43/133 35/44/134
f 35/44/135 36/45/136 43/53/137 42/52/138
f 44/55/139 43/53/140 36/45/141 37/47/142
s 2
f 37/46/143 38/48/144 45/56/145 44/54/146
f 38/48/144 39/49/147 46/57/148 45/56/145
s off
f 33/42/149 40/50/150 47/58/151 48/59/152
f 49/60/153 33/42/154 48/59/155 50/61/156
f 47/58/157 51/62/158 50/61/159 48/59/160
f 40/50/161 52/63/162 51/62/163 47/58/164
f 23/31/165 53/64/166 52/63/167 40/50/168
f 54/65/169 53/64/170 23/31/171 32/41/172
f 55/66/173 54/65/174 32/41/175 31/40/176
f 56/67/177 55/66/178 31/40/179 30/39/180
s 3
f 30/39/181 29/38/182 57/68/183 56/67/184
f 29/38/182 46/57/185 58/69/186 57/68/183
s off
f 59/70/187 58/69/188 46/57/189 39/49/190
f 60/71/191 59/70/192 39/49/193 28/37/194
f 61/72/195 60/71/196 28/37/197 27/36/198
f 62/73/199 61/72/200 27/36/201 26/35/202
f 63/75/203 62/73/204 26/35/205 25/34/206
f 25/33/207 24/32/208 64/76/209 63/74/210
s 1
f 33/42/106 49/60/211 64/76/212 24/32/107
s off
f 65/77/213 68/80/214 67/79/215 66/78/216
f 67/79/217 70/82/218 69/81/219 66/78/220
f 71/83/221 74/86/222 73/85/223 72/84/224
f 75/87/225 76/88/226 73/85/227 74/86/228
f 77/89/229 69/92/230 70/91/231 78/90/232
f 79/93/233 66/94/234 69/92/235 77/89/236
f 80/95/237 65/96/238 66/94/239 79/93/240
f 68/80/241 65/77/242 80/98/243 81/97/244
f 82/99/245 83/100/246 74/86/247 71/83/248
f 84/101/249 75/87/250 74/86/251 83/100/252
f 85/102/253 77/89/254 78/90/255 86/103/256
f 87/104/257 79/93/258 77/89/259 85/102/260
f 88/105/261 80/95/262 79/93/263 87/104/264
f 81/97/265 80/98/266 88/107/267 89/106/268
f 90/108/269 75/87/270 84/101/271 91/109/272
f 92/110/273 76/88/274 75/87/275 90/108/276
f 73/111/277 76/114/278 92/113/279 93/112/280
f 94/115/281 72/84/282 73/111/283 93/112/284
f 71/83/285 72/84/286 94/115/287 95/116/288
f 82/99/289 71/83/290 95/116/291 96/117/292
f 95/116/293 98/119/294 97/118/295 96/117/296
f 99/120/297 90/108/298 91/109/299 100/121/300
f 101/122/301 92/110/302 90/108/303 99/120/304
f 93/112/305 92/113/306 101/124/307 102/123/308
f 103/125/309 94/115/310 93/112/311 102/123/312
f 95/116/313 94/115/314 103/125/315 98/119/316
s 4
f 104/126/317 81/97/318 89/106/319 105/127/320
s off
f 106/128/321 68/80/322 81/97/323 104/126/324
f 68/80/325 106/128/326 107/129/327 67/79/328
f 108/130/329 70/82/330 67/79/331 107/129/332
f 70/91/333 108/132/334 109/131/335 78/90/336
f 78/90/337 109/131/338 110/133/339 86/103/340
s 4
f 98/119/341 104/126/317 105/127/320 97/118/342
s off
f 103/125/343 106/128/344 104/126/345 98/119/346
f 106/128/347 103/125/348 102/123/349 107/129/350
f 101/124/351 108/130/352 107/129/353 102/123/354
s 5
f 108/132/355 101/122/356 99/120/357 109/131/358
f 109/131/358 99/120/357 100/121/359 110/133/360
s off
f 105/127/361 112/135/362 111/134/363 97/118/364
f 49/136/365 50/137/366 112/135/367 105/127/368
f 111/134/369 112/135/370 50/137/371 51/138/372
f 97/118/373 111/134/374 51/138/375 52/139/376
f 96/117/377 97/118/378 52/139/379 53/140/380
f 54/141/381 82/99/382 96/117/383 53/140/384
f 55/142/385 83/100/386 82/99/387 54/141/388
f 56/143/389 84/101/390 83/100/391 55/142/392
s 5
f 84/101/393 56/143/394 57/144/395 91/109/396
f 91/109/396 57/144/395 58/145/397 100/121/359
f 59/146/398 110/133/360 100/121/359 58/145/397
s off
f 60/147/399 86/103/400 110/133/401 59/146/402
f 61/148/403 85/102/404 86/103/405 60/147/406
f 62/149/407 87/104/408 85/102/409 61/148/410
f 63/150/411 88/105/412 87/104/413 62/149/414
f 88/107/415 63/152/416 64/151/417 89/106/418
s 4
f 105/127/320 89/106/319 64/151/419 49/136/420
